<svg xmlns="http://www.w3.org/2000/svg" xmlns:xlink="http://www.w3.org/1999/xlink" width="500" zoomAndPan="magnify" viewBox="0 0 375 374.999991" height="500" preserveAspectRatio="xMidYMid meet" version="1.0"><defs><g/><clipPath id="id1"><path d="M 59.023438 89.542969 L 316 89.542969 L 316 195.292969 L 59.023438 195.292969 Z M 59.023438 89.542969 " clip-rule="nonzero"/></clipPath><clipPath id="id2"><path d="M 267 303 L 283.585938 303 L 283.585938 318 L 267 318 Z M 267 303 " clip-rule="nonzero"/></clipPath></defs><rect x="-37.5" width="450" fill="#ffffff" y="-37.499999" height="449.999989" fill-opacity="1"/><rect x="-37.5" width="450" fill="#ffffff" y="-37.499999" height="449.999989" fill-opacity="1"/><rect x="-37.5" width="450" fill="#ffffff" y="-37.499999" height="449.999989" fill-opacity="1"/><g clip-path="url(#id1)"><path fill="#004aad" d="M 278.871094 148.519531 C 278.398438 147.636719 277.960938 146.734375 276.859375 146.496094 C 275.789062 146.265625 274.890625 146.921875 274.117188 147.566406 C 273.523438 148.0625 272.867188 148.519531 272.210938 148.925781 C 271.25 149.515625 269.960938 150.601562 270.980469 151.789062 C 271.390625 152.265625 272.050781 152.480469 272.683594 152.480469 C 273.6875 152.488281 274.789062 152.332031 275.8125 152.527344 C 277.085938 152.769531 278.164062 153.726562 279.464844 153.851562 C 280.261719 153.929688 280.953125 153.589844 281.191406 152.816406 C 281.613281 151.433594 280.347656 150.515625 279.558594 149.59375 C 279.285156 149.277344 279.074219 148.898438 278.871094 148.519531 Z M 282.53125 147.183594 C 281.714844 147.105469 280.988281 147.773438 280.910156 148.671875 C 280.824219 149.566406 281.417969 150.351562 282.230469 150.425781 C 283.042969 150.5 283.769531 149.835938 283.851562 148.941406 C 283.933594 148.046875 283.34375 147.257812 282.53125 147.183594 Z M 279.390625 146.453125 C 280.285156 146.625 281.175781 145.925781 281.375 144.890625 C 281.570312 143.855469 281.007812 142.875 280.109375 142.703125 C 279.214844 142.53125 278.324219 143.230469 278.125 144.265625 C 277.925781 145.300781 278.492188 146.28125 279.390625 146.453125 Z M 274.65625 145.351562 C 275.570312 145.304688 276.269531 144.40625 276.214844 143.34375 C 276.160156 142.285156 275.371094 141.460938 274.457031 141.507812 C 273.542969 141.558594 272.84375 142.457031 272.902344 143.515625 C 272.957031 144.578125 273.742188 145.398438 274.65625 145.351562 Z M 271.625 145.496094 C 271.0625 144.648438 269.960938 144.390625 269.171875 144.917969 C 268.378906 145.441406 268.191406 146.554688 268.753906 147.402344 C 269.320312 148.25 270.417969 148.507812 271.210938 147.980469 C 272.003906 147.453125 272.191406 146.34375 271.625 145.496094 Z M 285.027344 145.914062 C 283.085938 141.515625 279.609375 138.855469 275.734375 138.800781 C 271.742188 138.738281 268.148438 141.46875 265.851562 146.277344 C 258.082031 162.5625 248.117188 174.832031 242.648438 180.910156 C 242.492188 183.09375 242.214844 186.4375 241.847656 189.0625 C 241.757812 189.722656 241.195312 190.199219 240.550781 190.199219 C 240.488281 190.199219 240.429688 190.191406 240.371094 190.183594 C 239.648438 190.085938 239.148438 189.421875 239.246094 188.707031 C 239.683594 185.554688 240 181.210938 240.125 179.371094 C 240.179688 175.59375 240.171875 172.042969 240.105469 168.703125 C 236.621094 172.097656 231.140625 174.199219 224.886719 174.445312 C 224.464844 174.460938 224.050781 174.46875 223.636719 174.46875 C 214.484375 174.46875 205.847656 170.503906 200.324219 163.710938 C 192.769531 154.417969 192.984375 139.746094 194.496094 129.078125 C 195.757812 120.148438 198.113281 112.453125 199.113281 109.425781 C 196.144531 109.082031 192.964844 108.859375 189.519531 108.753906 C 182.558594 108.539062 176.492188 108.902344 171.089844 109.851562 C 171.089844 109.851562 171.085938 109.851562 171.085938 109.851562 C 171.074219 109.851562 171.066406 109.855469 171.054688 109.855469 C 170.589844 109.9375 170.128906 110.027344 169.671875 110.117188 C 164.488281 111.257812 161.308594 113.871094 161.269531 113.902344 C 161.035156 114.097656 160.746094 114.195312 160.457031 114.195312 C 160.097656 114.195312 159.738281 114.042969 159.488281 113.746094 C 159.042969 113.210938 159.109375 112.414062 159.644531 111.964844 C 159.765625 111.863281 161.878906 110.109375 165.5 108.726562 C 159.328125 98.941406 151.773438 93.4375 147.203125 92.445312 C 145.90625 92.164062 144.847656 92.246094 144.230469 92.671875 C 143.300781 93.316406 141.324219 98.539062 139.707031 110.273438 C 138.308594 120.410156 137.78125 131.164062 138.328125 138.347656 C 138.335938 138.503906 138.324219 138.660156 138.277344 138.808594 C 134.742188 150.558594 134.023438 168.214844 136.082031 192.757812 L 268.097656 192.757812 C 291.3125 166.277344 286.933594 150.21875 285.027344 145.914062 Z M 200.535156 109.601562 C 199.609375 112.367188 197.171875 120.179688 195.882812 129.300781 C 194.414062 139.683594 194.183594 153.929688 201.417969 162.828125 C 206.910156 169.585938 215.660156 173.40625 224.828125 173.039062 C 231.351562 172.78125 236.941406 170.433594 240.054688 166.691406 C 239.738281 155.691406 238.703125 147.035156 236.894531 140.007812 C 236.855469 139.863281 236.847656 139.714844 236.859375 139.566406 C 237.550781 132.570312 237.101562 121.640625 235.691406 111.035156 C 234.0625 98.785156 232.03125 93.34375 231.066406 92.671875 C 230.441406 92.242188 229.378906 92.164062 228.070312 92.449219 C 223.445312 93.464844 215.839844 99.050781 209.648438 108.960938 C 213.089844 110.207031 215.417969 111.796875 215.554688 111.890625 C 216.128906 112.289062 216.273438 113.078125 215.875 113.652344 C 215.632812 114.007812 215.238281 114.199219 214.835938 114.199219 C 214.585938 114.199219 214.335938 114.125 214.117188 113.972656 C 214.042969 113.921875 210.714844 111.671875 206.28125 110.578125 C 204.457031 110.191406 202.550781 109.867188 200.535156 109.601562 Z M 315.820312 194.023438 C 315.820312 194.722656 315.253906 195.289062 314.554688 195.289062 L 60.738281 195.289062 C 60.039062 195.289062 59.472656 194.722656 59.472656 194.023438 C 59.472656 193.324219 60.039062 192.757812 60.738281 192.757812 L 133.542969 192.757812 C 132.496094 180.199219 132.175781 169.402344 132.585938 160.246094 L 125.226562 162.703125 C 125.09375 162.746094 124.957031 162.765625 124.828125 162.765625 C 124.296875 162.765625 123.804688 162.433594 123.625 161.902344 C 123.40625 161.242188 123.761719 160.523438 124.425781 160.300781 L 132.734375 157.53125 C 132.800781 156.441406 132.882812 155.378906 132.972656 154.339844 L 124.152344 154.199219 C 123.453125 154.191406 122.898438 153.613281 122.910156 152.914062 C 122.921875 152.21875 123.496094 151.664062 124.195312 151.671875 L 133.222656 151.8125 C 133.339844 150.730469 133.46875 149.675781 133.613281 148.652344 L 125.964844 145.828125 C 125.308594 145.585938 124.972656 144.859375 125.214844 144.203125 C 125.457031 143.546875 126.183594 143.210938 126.839844 143.453125 L 134.011719 146.101562 C 134.496094 143.273438 135.082031 140.675781 135.785156 138.304688 C 135.253906 130.960938 135.792969 120.117188 137.199219 109.929688 C 138.078125 103.542969 139.976562 92.539062 142.789062 90.59375 C 144.007812 89.75 145.71875 89.535156 147.738281 89.976562 C 153.066406 91.128906 161.3125 97.109375 167.960938 107.886719 C 168.378906 107.796875 168.800781 107.710938 169.222656 107.625 C 169.703125 107.523438 170.191406 107.429688 170.699219 107.351562 C 176.261719 106.378906 182.480469 106.007812 189.597656 106.226562 C 195.210938 106.398438 200.164062 106.875 204.628906 107.679688 C 205.40625 107.789062 206.160156 107.941406 206.886719 108.121094 C 206.976562 108.136719 207.066406 108.15625 207.160156 108.175781 C 213.820312 97.242188 222.136719 91.164062 227.527344 89.980469 C 229.558594 89.53125 231.277344 89.746094 232.503906 90.59375 C 235.398438 92.597656 237.316406 104.054688 238.199219 110.703125 C 239.621094 121.371094 240.078125 132.410156 239.402344 139.59375 C 239.929688 141.679688 240.394531 143.90625 240.792969 146.28125 L 248.457031 143.453125 C 249.113281 143.210938 249.839844 143.546875 250.082031 144.203125 C 250.324219 144.855469 249.988281 145.585938 249.332031 145.828125 L 241.191406 148.832031 C 241.328125 149.804688 241.457031 150.800781 241.578125 151.820312 L 251.097656 151.671875 C 251.808594 151.65625 252.375 152.21875 252.382812 152.914062 C 252.394531 153.613281 251.835938 154.191406 251.140625 154.199219 L 241.847656 154.347656 C 241.945312 155.335938 242.03125 156.34375 242.109375 157.378906 L 250.867188 160.300781 C 251.53125 160.523438 251.886719 161.242188 251.667969 161.902344 C 251.488281 162.433594 250.996094 162.765625 250.464844 162.765625 C 250.332031 162.765625 250.199219 162.746094 250.066406 162.703125 L 242.296875 160.109375 C 242.605469 165.1875 242.730469 170.800781 242.683594 177.046875 C 248.257812 170.558594 256.769531 159.433594 263.570312 145.191406 C 266.308594 139.449219 270.753906 136.195312 275.769531 136.269531 C 280.585938 136.339844 285.023438 139.640625 287.34375 144.890625 C 289.050781 148.75 290.464844 155.425781 287.503906 165.320312 C 284.90625 174.019531 279.503906 183.238281 271.4375 192.757812 L 314.554688 192.757812 C 315.253906 192.757812 315.820312 193.324219 315.820312 194.023438 Z M 224.835938 158.734375 C 224.835938 161.910156 227.410156 164.480469 230.582031 164.480469 C 233.757812 164.480469 236.332031 161.910156 236.332031 158.734375 C 236.332031 155.5625 233.757812 152.992188 230.582031 152.992188 C 227.410156 152.992188 224.835938 155.5625 224.835938 158.734375 Z M 144.710938 152.992188 C 141.535156 152.992188 138.960938 155.5625 138.960938 158.734375 C 138.960938 161.910156 141.535156 164.480469 144.710938 164.480469 C 147.886719 164.480469 150.457031 161.910156 150.457031 158.734375 C 150.457031 155.5625 147.886719 152.992188 144.710938 152.992188 Z M 187.648438 140.277344 C 185.304688 140.277344 183.410156 140.761719 183.410156 142.269531 C 183.410156 143.65625 185.007812 145.414062 187.085938 145.691406 L 187.085938 151.503906 L 184.945312 153.886719 C 184.742188 154.117188 184.761719 154.476562 184.992188 154.683594 C 185.222656 154.890625 185.578125 154.871094 185.785156 154.640625 L 187.648438 152.5625 L 189.507812 154.640625 C 189.621094 154.761719 189.773438 154.824219 189.929688 154.824219 C 190.0625 154.824219 190.195312 154.777344 190.300781 154.683594 C 190.535156 154.476562 190.554688 154.117188 190.347656 153.886719 L 188.210938 151.503906 L 188.210938 145.691406 C 190.285156 145.414062 191.882812 143.65625 191.882812 142.269531 C 191.882812 140.761719 189.988281 140.277344 187.648438 140.277344 Z M 163.972656 139.195312 C 163.972656 138.246094 163.203125 137.476562 162.253906 137.476562 C 161.308594 137.476562 160.535156 138.246094 160.535156 139.195312 C 160.535156 140.140625 161.308594 140.910156 162.253906 140.910156 C 163.203125 140.910156 163.972656 140.140625 163.972656 139.195312 Z M 173.894531 142.347656 C 173.894531 146.664062 170.394531 150.167969 166.074219 150.167969 C 161.753906 150.167969 158.25 146.664062 158.25 142.347656 C 158.25 138.03125 161.753906 134.527344 166.074219 134.527344 C 170.394531 134.527344 173.894531 138.03125 173.894531 142.347656 Z M 176.035156 143.003906 C 174.714844 137.082031 169.425781 132.652344 163.101562 132.652344 C 156.777344 132.652344 151.488281 137.082031 150.167969 143.003906 C 151.488281 148.929688 156.777344 153.359375 163.101562 153.359375 C 169.425781 153.359375 174.714844 148.929688 176.035156 143.003906 Z M 177.132812 142.761719 C 177.167969 142.921875 177.167969 143.089844 177.132812 143.25 C 176.433594 146.386719 174.664062 149.238281 172.152344 151.277344 C 169.605469 153.34375 166.390625 154.484375 163.101562 154.484375 C 159.8125 154.484375 156.597656 153.34375 154.050781 151.277344 C 151.539062 149.238281 149.769531 146.386719 149.070312 143.25 C 149.035156 143.089844 149.035156 142.921875 149.070312 142.761719 C 149.769531 139.621094 151.539062 136.769531 154.050781 134.734375 C 156.597656 132.667969 159.8125 131.527344 163.101562 131.527344 C 166.390625 131.527344 169.605469 132.667969 172.152344 134.734375 C 174.664062 136.769531 176.433594 139.621094 177.132812 142.761719 Z M 211.402344 139.195312 C 211.402344 140.140625 212.167969 140.910156 213.117188 140.910156 C 214.066406 140.910156 214.835938 140.140625 214.835938 139.195312 C 214.835938 138.246094 214.066406 137.476562 213.117188 137.476562 C 212.167969 137.476562 211.402344 138.246094 211.402344 139.195312 Z M 209.113281 142.347656 C 209.113281 138.03125 212.617188 134.527344 216.9375 134.527344 C 221.257812 134.527344 224.757812 138.03125 224.757812 142.347656 C 224.757812 146.664062 221.257812 150.167969 216.9375 150.167969 C 212.617188 150.167969 209.113281 146.664062 209.113281 142.347656 Z M 200.871094 143.003906 C 202.191406 148.929688 207.476562 153.359375 213.804688 153.359375 C 220.128906 153.359375 225.414062 148.929688 226.738281 143.003906 C 225.414062 137.082031 220.128906 132.652344 213.804688 132.652344 C 207.476562 132.652344 202.191406 137.082031 200.871094 143.003906 Z M 199.773438 143.25 C 199.738281 143.089844 199.738281 142.921875 199.773438 142.761719 C 200.472656 139.621094 202.242188 136.769531 204.753906 134.734375 C 207.300781 132.667969 210.515625 131.527344 213.804688 131.527344 C 217.09375 131.527344 220.308594 132.667969 222.855469 134.734375 C 225.367188 136.769531 227.136719 139.621094 227.835938 142.761719 C 227.871094 142.921875 227.871094 143.089844 227.835938 143.25 C 227.136719 146.386719 225.367188 149.238281 222.855469 151.277344 C 220.308594 153.34375 217.09375 154.484375 213.804688 154.484375 C 210.515625 154.484375 207.300781 153.34375 204.753906 151.277344 C 202.242188 149.238281 200.472656 146.386719 199.773438 143.25 Z M 218.273438 110.769531 L 226.589844 116.824219 C 227.683594 117.625 229.226562 116.910156 229.332031 115.5625 C 229.714844 110.695312 230.082031 101.636719 227.644531 100.816406 C 224.425781 99.734375 219.839844 105.582031 217.878906 108.375 C 217.332031 109.148438 217.507812 110.210938 218.273438 110.769531 Z M 144.988281 115.019531 C 144.601562 110.085938 144.230469 100.90625 146.703125 100.078125 C 149.964844 98.980469 154.609375 104.90625 156.597656 107.734375 C 157.148438 108.519531 156.972656 109.597656 156.199219 110.164062 L 147.769531 116.300781 C 146.660156 117.105469 145.09375 116.386719 144.988281 115.019531 " fill-opacity="1" fill-rule="nonzero"/></g><path stroke-linecap="round" transform="matrix(1.498636, 0, 0, 1.315068, 42.130483, 283.766525)" fill="none" stroke-linejoin="miter" d="M 0.499403 -0.000684653 L 51.050587 -0.000684653 " stroke="#004aad" stroke-width="1" stroke-opacity="1" stroke-miterlimit="4"/><path stroke-linecap="round" transform="matrix(1.498636, 0, 0, 1.315068, 255.542976, 285.05131)" fill="none" stroke-linejoin="miter" d="M 0.500451 -0.000402132 L 51.051635 -0.000402132 " stroke="#004aad" stroke-width="1" stroke-opacity="1" stroke-miterlimit="4"/><path fill="#004aad" d="M 247.207031 328.726562 C 247.210938 328.695312 247.210938 328.664062 247.210938 328.632812 C 247.132812 327.335938 245.816406 326.480469 244.597656 326.238281 C 243.5 325.960938 242.007812 326.265625 241.621094 327.417969 C 241.566406 327.585938 241.558594 327.761719 241.589844 327.9375 C 241.917969 329.410156 243.59375 330.246094 245.066406 330.210938 C 246.007812 330.257812 247.105469 329.699219 247.207031 328.726562 Z M 247.773438 323.34375 C 247.84375 322.554688 247.085938 321.84375 246.316406 321.628906 C 244.796875 321.1875 242.789062 321.640625 242.117188 323.136719 C 242.070312 323.277344 242.046875 323.429688 242.054688 323.578125 C 242.113281 324.648438 243.285156 325.234375 244.28125 325.304688 C 245.585938 325.421875 247.171875 324.945312 247.6875 323.6875 C 247.734375 323.570312 247.761719 323.457031 247.773438 323.34375 Z M 242.339844 331.648438 C 242.414062 330.277344 241.105469 329.175781 239.800781 328.890625 C 238.867188 328.601562 237.53125 328.941406 237.332031 329.980469 C 237.183594 331.441406 238.6875 332.621094 240.078125 332.824219 C 240.992188 333.023438 242.175781 332.628906 242.339844 331.648438 Z M 243.417969 319.671875 C 243.492188 319.09375 243.195312 318.480469 242.605469 318.222656 C 241.019531 317.527344 238.820312 318.300781 238.28125 319.933594 C 238.074219 320.617188 238.5625 321.292969 239.210938 321.542969 C 240.605469 322.078125 242.359375 321.515625 243.160156 320.316406 C 243.304688 320.121094 243.390625 319.898438 243.417969 319.671875 Z M 239.757812 325.449219 C 239.890625 324.3125 239.421875 323.085938 238.613281 322.246094 C 237.664062 321.332031 236.527344 320.539062 235.238281 320.132812 C 234.328125 319.714844 233.15625 320.289062 233.035156 321.261719 C 232.867188 322.429688 233.585938 323.53125 233.511719 324.703125 C 233.554688 325.707031 232.914062 326.53125 232.460938 327.378906 C 232.035156 328.09375 232.042969 329.152344 232.847656 329.636719 C 233.671875 330.039062 234.644531 329.699219 235.457031 329.417969 C 236.789062 328.804688 238.191406 328.148438 239.113281 327 C 239.488281 326.539062 239.695312 326.003906 239.757812 325.449219 Z M 239.757812 325.449219 " fill-opacity="1" fill-rule="nonzero"/><path fill="#004aad" d="M 142.167969 313.335938 C 142.164062 313.304688 142.15625 313.273438 142.152344 313.242188 C 141.785156 311.996094 140.3125 311.449219 139.070312 311.480469 C 137.933594 311.453125 136.546875 312.082031 136.425781 313.285156 C 136.410156 313.460938 136.445312 313.636719 136.511719 313.800781 C 137.160156 315.164062 138.980469 315.613281 140.410156 315.253906 C 141.339844 315.09375 142.285156 314.304688 142.167969 313.335938 Z M 141.519531 307.960938 C 141.414062 307.175781 140.515625 306.648438 139.71875 306.609375 C 138.136719 306.511719 136.28125 307.398438 135.960938 309.003906 C 135.941406 309.152344 135.957031 309.300781 135.996094 309.445312 C 136.292969 310.476562 137.566406 310.789062 138.550781 310.640625 C 139.851562 310.46875 141.289062 309.65625 141.515625 308.3125 C 141.535156 308.191406 141.535156 308.074219 141.519531 307.960938 Z M 138.074219 317.253906 C 137.839844 315.898438 136.316406 315.117188 134.980469 315.125 C 134.003906 315.046875 132.78125 315.671875 132.816406 316.726562 C 132.996094 318.1875 134.726562 319.007812 136.128906 318.898438 C 137.0625 318.890625 138.128906 318.25 138.074219 317.253906 Z M 136.457031 305.339844 C 136.398438 304.757812 135.976562 304.226562 135.339844 304.101562 C 133.640625 303.769531 131.667969 305.011719 131.503906 306.722656 C 131.457031 307.433594 132.082031 307.988281 132.769531 308.089844 C 134.246094 308.300781 135.835938 307.367188 136.347656 306.023438 C 136.445312 305.800781 136.480469 305.566406 136.457031 305.339844 Z M 134.175781 311.777344 C 134.046875 310.636719 133.320312 309.546875 132.34375 308.90625 C 131.214844 308.21875 129.929688 307.699219 128.582031 307.585938 C 127.601562 307.375 126.585938 308.195312 126.683594 309.171875 C 126.777344 310.347656 127.726562 311.261719 127.914062 312.421875 C 128.179688 313.390625 127.742188 314.335938 127.488281 315.261719 C 127.230469 316.054688 127.476562 317.085938 128.363281 317.378906 C 129.261719 317.589844 130.132812 317.042969 130.859375 316.589844 C 132.023438 315.703125 133.246094 314.753906 133.886719 313.429688 C 134.152344 312.898438 134.234375 312.332031 134.175781 311.777344 Z M 134.175781 311.777344 " fill-opacity="1" fill-rule="nonzero"/><path fill="#004aad" d="M 107.371094 329.402344 C 107.378906 329.371094 107.378906 329.339844 107.382812 329.304688 C 107.339844 328.011719 106.054688 327.113281 104.839844 326.835938 C 103.75 326.523438 102.25 326.789062 101.828125 327.925781 C 101.769531 328.089844 101.757812 328.269531 101.78125 328.441406 C 102.066406 329.929688 103.714844 330.8125 105.1875 330.820312 C 106.128906 330.894531 107.242188 330.367188 107.371094 329.402344 Z M 108.101562 324.039062 C 108.199219 323.25 107.457031 322.515625 106.695312 322.277344 C 105.191406 321.792969 103.171875 322.1875 102.457031 323.664062 C 102.402344 323.800781 102.375 323.953125 102.378906 324.101562 C 102.40625 325.171875 103.558594 325.792969 104.550781 325.890625 C 105.855469 326.050781 107.453125 325.621094 108.007812 324.378906 C 108.058594 324.261719 108.089844 324.148438 108.101562 324.039062 Z M 102.421875 332.175781 C 102.539062 330.804688 101.261719 329.671875 99.964844 329.34375 C 99.039062 329.027344 97.695312 329.328125 97.46875 330.359375 C 97.273438 331.816406 98.742188 333.042969 100.125 333.285156 C 101.03125 333.511719 102.226562 333.152344 102.421875 332.175781 Z M 103.859375 320.238281 C 103.949219 319.660156 103.675781 319.039062 103.089844 318.761719 C 101.527344 318.019531 99.304688 318.730469 98.714844 320.347656 C 98.488281 321.023438 98.957031 321.714844 99.597656 321.984375 C 100.976562 322.558594 102.746094 322.046875 103.582031 320.875 C 103.734375 320.683594 103.824219 320.464844 103.859375 320.238281 Z M 100.027344 325.902344 C 100.191406 324.769531 99.761719 323.53125 98.980469 322.667969 C 98.058594 321.722656 96.945312 320.898438 95.671875 320.453125 C 94.773438 320.007812 93.582031 320.550781 93.433594 321.519531 C 93.226562 322.679688 93.914062 323.800781 93.804688 324.96875 C 93.816406 325.976562 93.15625 326.78125 92.675781 327.613281 C 92.230469 328.316406 92.203125 329.375 92.992188 329.882812 C 93.808594 330.308594 94.789062 330 95.605469 329.742188 C 96.957031 329.167969 98.378906 328.554688 99.335938 327.433594 C 99.726562 326.984375 99.949219 326.457031 100.027344 325.902344 Z M 100.027344 325.902344 " fill-opacity="1" fill-rule="nonzero"/><path fill="#004aad" d="M 211.324219 312.394531 C 211.320312 312.363281 211.3125 312.332031 211.304688 312.300781 C 210.863281 311.082031 209.355469 310.625 208.117188 310.730469 C 206.984375 310.773438 205.640625 311.484375 205.59375 312.695312 C 205.589844 312.871094 205.632812 313.042969 205.707031 313.203125 C 206.441406 314.527344 208.285156 314.859375 209.691406 314.414062 C 210.609375 314.195312 211.503906 313.355469 211.324219 312.394531 Z M 210.347656 307.070312 C 210.195312 306.289062 209.261719 305.820312 208.464844 305.828125 C 206.882812 305.828125 205.085938 306.824219 204.863281 308.449219 C 204.855469 308.597656 204.878906 308.746094 204.925781 308.886719 C 205.285156 309.898438 206.574219 310.132812 207.550781 309.921875 C 208.835938 309.671875 210.222656 308.773438 210.363281 307.421875 C 210.378906 307.296875 210.371094 307.179688 210.347656 307.070312 Z M 207.480469 316.554688 C 207.164062 315.214844 205.597656 314.527344 204.261719 314.617188 C 203.285156 314.597656 202.101562 315.300781 202.203125 316.351562 C 202.46875 317.792969 204.25 318.507812 205.644531 318.3125 C 206.574219 318.25 207.597656 317.542969 207.480469 316.554688 Z M 205.132812 304.761719 C 205.039062 304.183594 204.582031 303.679688 203.941406 303.59375 C 202.222656 303.367188 200.332031 304.726562 200.273438 306.445312 C 200.269531 307.15625 200.925781 307.671875 201.625 307.730469 C 203.109375 307.851562 204.636719 306.824219 205.066406 305.449219 C 205.148438 305.222656 205.167969 304.984375 205.132812 304.761719 Z M 203.25 311.324219 C 203.054688 310.195312 202.261719 309.152344 201.246094 308.570312 C 200.078125 307.957031 198.761719 307.515625 197.410156 307.484375 C 196.417969 307.335938 195.457031 308.214844 195.617188 309.179688 C 195.78125 310.347656 196.785156 311.207031 197.042969 312.351562 C 197.367188 313.304688 196.988281 314.269531 196.792969 315.210938 C 196.585938 316.015625 196.890625 317.03125 197.796875 317.273438 C 198.707031 317.429688 199.542969 316.828125 200.242188 316.332031 C 201.347656 315.375 202.507812 314.351562 203.066406 312.992188 C 203.300781 312.445312 203.347656 311.875 203.25 311.324219 Z M 203.25 311.324219 " fill-opacity="1" fill-rule="nonzero"/><path fill="#004aad" d="M 174.699219 326.441406 C 174.703125 326.410156 174.703125 326.378906 174.703125 326.347656 C 174.625 325.050781 173.308594 324.195312 172.089844 323.949219 C 170.992188 323.675781 169.5 323.980469 169.113281 325.128906 C 169.058594 325.296875 169.050781 325.476562 169.082031 325.648438 C 169.410156 327.125 171.085938 327.960938 172.558594 327.925781 C 173.5 327.972656 174.597656 327.414062 174.699219 326.441406 Z M 175.265625 321.058594 C 175.339844 320.269531 174.578125 319.558594 173.808594 319.34375 C 172.289062 318.898438 170.285156 319.355469 169.613281 320.851562 C 169.5625 320.992188 169.542969 321.140625 169.546875 321.292969 C 169.605469 322.359375 170.78125 322.945312 171.773438 323.015625 C 173.082031 323.136719 174.664062 322.660156 175.183594 321.402344 C 175.230469 321.285156 175.257812 321.171875 175.265625 321.058594 Z M 169.832031 329.363281 C 169.90625 327.988281 168.597656 326.890625 167.289062 326.605469 C 166.359375 326.3125 165.023438 326.65625 164.824219 327.691406 C 164.671875 329.152344 166.179688 330.335938 167.570312 330.539062 C 168.484375 330.734375 169.664062 330.34375 169.832031 329.363281 Z M 170.914062 317.386719 C 170.988281 316.808594 170.691406 316.195312 170.101562 315.933594 C 168.515625 315.238281 166.316406 316.015625 165.777344 317.644531 C 165.570312 318.328125 166.054688 319.007812 166.707031 319.257812 C 168.097656 319.789062 169.855469 319.230469 170.65625 318.03125 C 170.800781 317.835938 170.886719 317.613281 170.914062 317.386719 Z M 167.253906 323.160156 C 167.382812 322.023438 166.917969 320.800781 166.109375 319.960938 C 165.160156 319.042969 164.019531 318.25 162.734375 317.84375 C 161.824219 317.425781 160.652344 318 160.53125 318.972656 C 160.359375 320.140625 161.078125 321.242188 161.003906 322.414062 C 161.046875 323.417969 160.40625 324.238281 159.953125 325.085938 C 159.527344 325.804688 159.535156 326.863281 160.335938 327.347656 C 161.164062 327.75 162.136719 327.410156 162.949219 327.128906 C 164.28125 326.515625 165.683594 325.859375 166.605469 324.710938 C 166.980469 324.253906 167.1875 323.71875 167.253906 323.160156 Z M 167.253906 323.160156 " fill-opacity="1" fill-rule="nonzero"/><g clip-path="url(#id2)"><path fill="#004aad" d="M 283.027344 312.460938 C 283.023438 312.429688 283.019531 312.398438 283.015625 312.363281 C 282.65625 311.117188 281.183594 310.5625 279.941406 310.585938 C 278.808594 310.554688 277.417969 311.171875 277.289062 312.378906 C 277.273438 312.554688 277.304688 312.730469 277.371094 312.890625 C 278.011719 314.261719 279.832031 314.71875 281.261719 314.367188 C 282.191406 314.210938 283.140625 313.429688 283.027344 312.460938 Z M 282.414062 307.082031 C 282.3125 306.292969 281.414062 305.765625 280.617188 305.71875 C 279.035156 305.613281 277.175781 306.488281 276.847656 308.09375 C 276.828125 308.242188 276.839844 308.390625 276.878906 308.535156 C 277.171875 309.570312 278.441406 309.886719 279.425781 309.742188 C 280.730469 309.578125 282.171875 308.773438 282.40625 307.433594 C 282.425781 307.3125 282.425781 307.195312 282.414062 307.082031 Z M 278.914062 316.355469 C 278.6875 315 277.171875 314.207031 275.832031 314.210938 C 274.855469 314.125 273.628906 314.746094 273.660156 315.800781 C 273.832031 317.257812 275.558594 318.089844 276.960938 317.988281 C 277.894531 317.988281 278.964844 317.351562 278.914062 316.355469 Z M 277.363281 304.433594 C 277.308594 303.851562 276.886719 303.316406 276.253906 303.1875 C 274.554688 302.847656 272.574219 304.078125 272.402344 305.789062 C 272.351562 306.5 272.972656 307.054688 273.664062 307.160156 C 275.136719 307.382812 276.730469 306.457031 277.25 305.113281 C 277.351562 304.894531 277.386719 304.660156 277.363281 304.433594 Z M 275.046875 310.855469 C 274.925781 309.71875 274.203125 308.621094 273.230469 307.976562 C 272.105469 307.285156 270.820312 306.757812 269.476562 306.636719 C 268.496094 306.421875 267.476562 307.234375 267.570312 308.210938 C 267.65625 309.386719 268.597656 310.308594 268.78125 311.46875 C 269.042969 312.441406 268.597656 313.378906 268.339844 314.304688 C 268.078125 315.097656 268.316406 316.128906 269.203125 316.429688 C 270.101562 316.644531 270.976562 316.101562 271.703125 315.652344 C 272.875 314.769531 274.097656 313.828125 274.75 312.507812 C 275.019531 311.980469 275.105469 311.414062 275.046875 310.855469 Z M 275.046875 310.855469 " fill-opacity="1" fill-rule="nonzero"/></g><g fill="#00c2cb" fill-opacity="1"><g transform="translate(71.375003, 258.654937)"><g><path d="M 15.65625 -0.59375 L 16.421875 -0.59375 L 16.421875 0 L 3.53125 0 L 3.53125 -0.59375 L 4.296875 -0.59375 C 5.316406 -0.59375 6.1875 -0.953125 6.90625 -1.671875 C 7.632812 -2.398438 8.019531 -3.273438 8.0625 -4.296875 L 8.0625 -36.96875 C 8.019531 -37.988281 7.632812 -38.851562 6.90625 -39.5625 C 6.1875 -40.269531 5.316406 -40.625 4.296875 -40.625 L 3.53125 -40.625 L 3.53125 -41.21875 L 16.421875 -41.21875 L 16.421875 -40.625 L 15.65625 -40.625 C 14.632812 -40.625 13.757812 -40.269531 13.03125 -39.5625 C 12.3125 -38.851562 11.929688 -37.988281 11.890625 -36.96875 L 11.890625 -4.296875 C 11.890625 -3.273438 12.257812 -2.398438 13 -1.671875 C 13.75 -0.953125 14.632812 -0.59375 15.65625 -0.59375 Z M 39.328125 0 L 36.796875 0 C 32.796875 0 29.851562 -1.117188 27.96875 -3.359375 L 13.78125 -20.484375 L 27.671875 -37.921875 C 27.984375 -38.304688 28.140625 -38.65625 28.140625 -38.96875 C 28.140625 -39.289062 28.082031 -39.566406 27.96875 -39.796875 C 27.65625 -40.390625 27.085938 -40.6875 26.265625 -40.6875 L 25.671875 -40.6875 L 25.671875 -41.21875 L 38.09375 -41.21875 L 38.09375 -40.6875 L 37.859375 -40.6875 C 35.265625 -40.6875 33.144531 -39.765625 31.5 -37.921875 L 17.65625 -21.90625 L 33.734375 -3 C 35.304688 -1.425781 37.171875 -0.625 39.328125 -0.59375 Z M 39.328125 0 "/></g></g></g><g fill="#00c2cb" fill-opacity="1"><g transform="translate(125.54575, 258.654937)"><g><path d="M 4.296875 -0.59375 C 5.316406 -0.59375 6.1875 -0.953125 6.90625 -1.671875 C 7.632812 -2.398438 8.019531 -3.273438 8.0625 -4.296875 L 8.0625 -36.96875 C 8.019531 -37.988281 7.632812 -38.851562 6.90625 -39.5625 C 6.1875 -40.269531 5.316406 -40.625 4.296875 -40.625 L 3.53125 -40.625 L 3.53125 -41.21875 L 16.421875 -41.21875 L 16.421875 -40.625 L 15.65625 -40.625 C 14.632812 -40.625 13.757812 -40.269531 13.03125 -39.5625 C 12.3125 -38.851562 11.929688 -37.988281 11.890625 -36.96875 L 11.890625 -4.296875 C 11.890625 -3.273438 12.257812 -2.398438 13 -1.671875 C 13.75 -0.953125 14.632812 -0.59375 15.65625 -0.59375 L 16.421875 -0.59375 L 16.421875 0 L 3.53125 0 L 3.53125 -0.59375 Z M 4.296875 -0.59375 "/></g></g></g><g fill="#00c2cb" fill-opacity="1"><g transform="translate(160.934076, 258.654937)"><g><path d="M 34.671875 -35.96875 C 34.671875 -36.914062 34.335938 -37.734375 33.671875 -38.421875 C 33.003906 -39.109375 32.222656 -39.46875 31.328125 -39.5 L 20.140625 -39.5 L 20.140625 -4.234375 C 20.171875 -3.210938 20.550781 -2.347656 21.28125 -1.640625 C 22.007812 -0.941406 22.882812 -0.59375 23.90625 -0.59375 L 24.671875 -0.59375 L 24.671875 0 L 11.78125 0 L 11.78125 -0.59375 L 12.546875 -0.59375 C 13.566406 -0.59375 14.4375 -0.941406 15.15625 -1.640625 C 15.882812 -2.347656 16.269531 -3.195312 16.3125 -4.1875 L 16.3125 -39.5 L 5.125 -39.5 C 4.175781 -39.46875 3.378906 -39.109375 2.734375 -38.421875 C 2.085938 -37.734375 1.765625 -36.914062 1.765625 -35.96875 L 1.765625 -34.96875 L 1.171875 -34.90625 L 1.171875 -42.328125 C 1.765625 -42.097656 2.785156 -41.863281 4.234375 -41.625 C 5.691406 -41.382812 7.03125 -41.265625 8.25 -41.265625 L 28.140625 -41.265625 C 30.066406 -41.265625 31.664062 -41.410156 32.9375 -41.703125 C 34.21875 -42.003906 34.992188 -42.210938 35.265625 -42.328125 L 35.265625 -34.90625 L 34.671875 -34.96875 Z M 34.671875 -35.96875 "/></g></g></g><g fill="#00c2cb" fill-opacity="1"><g transform="translate(212.808526, 258.654937)"><g><path d="M 34.671875 -35.96875 C 34.671875 -36.914062 34.335938 -37.734375 33.671875 -38.421875 C 33.003906 -39.109375 32.222656 -39.46875 31.328125 -39.5 L 20.140625 -39.5 L 20.140625 -4.234375 C 20.171875 -3.210938 20.550781 -2.347656 21.28125 -1.640625 C 22.007812 -0.941406 22.882812 -0.59375 23.90625 -0.59375 L 24.671875 -0.59375 L 24.671875 0 L 11.78125 0 L 11.78125 -0.59375 L 12.546875 -0.59375 C 13.566406 -0.59375 14.4375 -0.941406 15.15625 -1.640625 C 15.882812 -2.347656 16.269531 -3.195312 16.3125 -4.1875 L 16.3125 -39.5 L 5.125 -39.5 C 4.175781 -39.46875 3.378906 -39.109375 2.734375 -38.421875 C 2.085938 -37.734375 1.765625 -36.914062 1.765625 -35.96875 L 1.765625 -34.96875 L 1.171875 -34.90625 L 1.171875 -42.328125 C 1.765625 -42.097656 2.785156 -41.863281 4.234375 -41.625 C 5.691406 -41.382812 7.03125 -41.265625 8.25 -41.265625 L 28.140625 -41.265625 C 30.066406 -41.265625 31.664062 -41.410156 32.9375 -41.703125 C 34.21875 -42.003906 34.992188 -42.210938 35.265625 -42.328125 L 35.265625 -34.90625 L 34.671875 -34.96875 Z M 34.671875 -35.96875 "/></g></g></g><g fill="#00c2cb" fill-opacity="1"><g transform="translate(264.682975, 258.654937)"><g><path d="M 39.625 -40.625 L 38.796875 -40.625 C 37.617188 -40.625 36.507812 -40.300781 35.46875 -39.65625 C 34.4375 -39.007812 33.566406 -38.191406 32.859375 -37.203125 L 21.25 -18.375 L 21.25 -4.296875 C 21.25 -3.273438 21.613281 -2.398438 22.34375 -1.671875 C 23.070312 -0.953125 23.96875 -0.59375 25.03125 -0.59375 L 25.734375 -0.59375 L 25.734375 0 L 12.890625 0 L 12.890625 -0.59375 L 13.65625 -0.59375 C 14.675781 -0.59375 15.550781 -0.941406 16.28125 -1.640625 C 17.007812 -2.347656 17.394531 -3.210938 17.4375 -4.234375 L 17.4375 -18.421875 L 6.1875 -37.203125 C 5.59375 -38.148438 4.753906 -38.957031 3.671875 -39.625 C 2.597656 -40.289062 1.472656 -40.625 0.296875 -40.625 L -0.53125 -40.625 L -0.53125 -41.21875 L 13.953125 -41.21875 L 13.953125 -40.625 L 13.1875 -40.625 C 12.320312 -40.625 11.65625 -40.234375 11.1875 -39.453125 C 10.957031 -39.015625 10.84375 -38.585938 10.84375 -38.171875 C 10.84375 -37.765625 10.9375 -37.363281 11.125 -36.96875 L 19.96875 -20.484375 L 29.375 -37.03125 C 29.570312 -37.425781 29.671875 -37.816406 29.671875 -38.203125 C 29.671875 -38.597656 29.535156 -39.015625 29.265625 -39.453125 C 28.796875 -40.234375 28.128906 -40.625 27.265625 -40.625 L 26.5625 -40.625 L 26.5625 -41.21875 L 39.625 -41.21875 Z M 39.625 -40.625 "/></g></g></g><g fill="#ff1616" fill-opacity="1"><g transform="translate(125.142733, 290.067681)"><g><path d="M 5.453125 -6.953125 C 5.984375 -6.953125 6.453125 -7.015625 6.859375 -7.140625 C 7.265625 -7.273438 7.601562 -7.457031 7.875 -7.6875 C 8.144531 -7.925781 8.347656 -8.207031 8.484375 -8.53125 C 8.628906 -8.863281 8.703125 -9.226562 8.703125 -9.625 C 8.703125 -10.425781 8.4375 -11.03125 7.90625 -11.4375 C 7.375 -11.84375 6.582031 -12.046875 5.53125 -12.046875 L 3.546875 -12.046875 L 3.546875 -6.953125 Z M 11.6875 0 L 10.078125 0 C 9.742188 0 9.5 -0.128906 9.34375 -0.390625 L 5.84375 -5.203125 C 5.726562 -5.359375 5.609375 -5.46875 5.484375 -5.53125 C 5.367188 -5.59375 5.179688 -5.625 4.921875 -5.625 L 3.546875 -5.625 L 3.546875 0 L 1.71875 0 L 1.71875 -13.484375 L 5.53125 -13.484375 C 6.382812 -13.484375 7.117188 -13.394531 7.734375 -13.21875 C 8.359375 -13.050781 8.875 -12.804688 9.28125 -12.484375 C 9.6875 -12.160156 9.988281 -11.765625 10.1875 -11.296875 C 10.382812 -10.835938 10.484375 -10.320312 10.484375 -9.75 C 10.484375 -9.269531 10.40625 -8.820312 10.25 -8.40625 C 10.101562 -8 9.882812 -7.628906 9.59375 -7.296875 C 9.3125 -6.972656 8.960938 -6.691406 8.546875 -6.453125 C 8.140625 -6.222656 7.675781 -6.050781 7.15625 -5.9375 C 7.382812 -5.800781 7.582031 -5.609375 7.75 -5.359375 Z M 11.6875 0 "/></g></g></g><g fill="#ff1616" fill-opacity="1"><g transform="translate(144.175658, 290.067681)"><g><path d="M 10.046875 -1.484375 L 10.03125 0 L 1.71875 0 L 1.71875 -13.484375 L 10.03125 -13.484375 L 10.03125 -12 L 3.546875 -12 L 3.546875 -7.515625 L 8.796875 -7.515625 L 8.796875 -6.09375 L 3.546875 -6.09375 L 3.546875 -1.484375 Z M 10.046875 -1.484375 "/></g></g></g><g fill="#ff1616" fill-opacity="1"><g transform="translate(162.285933, 290.067681)"><g><path d="M 12.6875 -13.484375 L 7.1875 0 L 5.546875 0 L 0.0625 -13.484375 L 1.515625 -13.484375 C 1.679688 -13.484375 1.8125 -13.441406 1.90625 -13.359375 C 2.007812 -13.285156 2.085938 -13.1875 2.140625 -13.0625 L 5.9375 -3.546875 C 6.019531 -3.328125 6.097656 -3.09375 6.171875 -2.84375 C 6.253906 -2.59375 6.328125 -2.328125 6.390625 -2.046875 C 6.453125 -2.328125 6.515625 -2.59375 6.578125 -2.84375 C 6.648438 -3.09375 6.726562 -3.328125 6.8125 -3.546875 L 10.609375 -13.0625 C 10.648438 -13.164062 10.722656 -13.257812 10.828125 -13.34375 C 10.941406 -13.4375 11.078125 -13.484375 11.234375 -13.484375 Z M 12.6875 -13.484375 "/></g></g></g><g fill="#ff1616" fill-opacity="1"><g transform="translate(182.269782, 290.067681)"><g><path d="M 3.546875 0 L 1.71875 0 L 1.71875 -13.484375 L 3.546875 -13.484375 Z M 3.546875 0 "/></g></g></g><g fill="#ff1616" fill-opacity="1"><g transform="translate(194.778176, 290.067681)"><g><path d="M 10.046875 -1.484375 L 10.03125 0 L 1.71875 0 L 1.71875 -13.484375 L 10.03125 -13.484375 L 10.03125 -12 L 3.546875 -12 L 3.546875 -7.515625 L 8.796875 -7.515625 L 8.796875 -6.09375 L 3.546875 -6.09375 L 3.546875 -1.484375 Z M 10.046875 -1.484375 "/></g></g></g><g fill="#ff1616" fill-opacity="1"><g transform="translate(212.888448, 290.067681)"><g><path d="M 19.203125 -13.484375 L 15 0 L 13.359375 0 L 9.9375 -10.296875 C 9.90625 -10.390625 9.875 -10.492188 9.84375 -10.609375 C 9.820312 -10.722656 9.796875 -10.84375 9.765625 -10.96875 C 9.734375 -10.84375 9.703125 -10.722656 9.671875 -10.609375 C 9.640625 -10.492188 9.609375 -10.390625 9.578125 -10.296875 L 6.140625 0 L 4.5 0 L 0.296875 -13.484375 L 1.8125 -13.484375 C 1.96875 -13.484375 2.097656 -13.441406 2.203125 -13.359375 C 2.316406 -13.285156 2.390625 -13.1875 2.421875 -13.0625 L 5.21875 -3.6875 C 5.257812 -3.507812 5.300781 -3.320312 5.34375 -3.125 C 5.382812 -2.9375 5.421875 -2.734375 5.453125 -2.515625 C 5.503906 -2.734375 5.550781 -2.941406 5.59375 -3.140625 C 5.644531 -3.335938 5.695312 -3.519531 5.75 -3.6875 L 8.921875 -13.0625 C 8.960938 -13.164062 9.035156 -13.257812 9.140625 -13.34375 C 9.253906 -13.4375 9.390625 -13.484375 9.546875 -13.484375 L 10.078125 -13.484375 C 10.234375 -13.484375 10.363281 -13.441406 10.46875 -13.359375 C 10.570312 -13.285156 10.644531 -13.1875 10.6875 -13.0625 L 13.859375 -3.6875 C 13.910156 -3.519531 13.957031 -3.34375 14 -3.15625 C 14.050781 -2.96875 14.101562 -2.769531 14.15625 -2.5625 C 14.1875 -2.769531 14.21875 -2.96875 14.25 -3.15625 C 14.289062 -3.34375 14.332031 -3.519531 14.375 -3.6875 L 17.171875 -13.0625 C 17.203125 -13.175781 17.269531 -13.273438 17.375 -13.359375 C 17.488281 -13.441406 17.625 -13.484375 17.78125 -13.484375 Z M 19.203125 -13.484375 "/></g></g></g><g fill="#ff1616" fill-opacity="1"><g transform="translate(239.622779, 290.067681)"><g><path d="M 8.625 -11.375 C 8.5625 -11.28125 8.5 -11.207031 8.4375 -11.15625 C 8.375 -11.113281 8.296875 -11.09375 8.203125 -11.09375 C 8.097656 -11.09375 7.972656 -11.144531 7.828125 -11.25 C 7.679688 -11.363281 7.5 -11.484375 7.28125 -11.609375 C 7.0625 -11.742188 6.800781 -11.863281 6.5 -11.96875 C 6.195312 -12.070312 5.828125 -12.125 5.390625 -12.125 C 4.984375 -12.125 4.625 -12.066406 4.3125 -11.953125 C 4 -11.847656 3.738281 -11.703125 3.53125 -11.515625 C 3.320312 -11.328125 3.164062 -11.101562 3.0625 -10.84375 C 2.957031 -10.59375 2.90625 -10.320312 2.90625 -10.03125 C 2.90625 -9.65625 2.992188 -9.34375 3.171875 -9.09375 C 3.359375 -8.84375 3.601562 -8.628906 3.90625 -8.453125 C 4.21875 -8.273438 4.566406 -8.117188 4.953125 -7.984375 C 5.335938 -7.859375 5.726562 -7.726562 6.125 -7.59375 C 6.53125 -7.457031 6.925781 -7.300781 7.3125 -7.125 C 7.695312 -6.957031 8.039062 -6.738281 8.34375 -6.46875 C 8.65625 -6.207031 8.898438 -5.882812 9.078125 -5.5 C 9.265625 -5.125 9.359375 -4.65625 9.359375 -4.09375 C 9.359375 -3.5 9.257812 -2.941406 9.0625 -2.421875 C 8.863281 -1.910156 8.570312 -1.460938 8.1875 -1.078125 C 7.800781 -0.703125 7.328125 -0.398438 6.765625 -0.171875 C 6.203125 0.046875 5.5625 0.15625 4.84375 0.15625 C 3.96875 0.15625 3.171875 0 2.453125 -0.3125 C 1.742188 -0.632812 1.132812 -1.066406 0.625 -1.609375 L 1.15625 -2.46875 C 1.195312 -2.539062 1.253906 -2.597656 1.328125 -2.640625 C 1.398438 -2.691406 1.484375 -2.71875 1.578125 -2.71875 C 1.648438 -2.71875 1.738281 -2.679688 1.84375 -2.609375 C 1.945312 -2.546875 2.066406 -2.460938 2.203125 -2.359375 C 2.335938 -2.265625 2.488281 -2.15625 2.65625 -2.03125 C 2.820312 -1.914062 3.015625 -1.804688 3.234375 -1.703125 C 3.453125 -1.609375 3.695312 -1.523438 3.96875 -1.453125 C 4.25 -1.390625 4.5625 -1.359375 4.90625 -1.359375 C 5.332031 -1.359375 5.71875 -1.414062 6.0625 -1.53125 C 6.40625 -1.65625 6.691406 -1.828125 6.921875 -2.046875 C 7.160156 -2.265625 7.34375 -2.523438 7.46875 -2.828125 C 7.59375 -3.128906 7.65625 -3.460938 7.65625 -3.828125 C 7.65625 -4.234375 7.5625 -4.566406 7.375 -4.828125 C 7.1875 -5.085938 6.941406 -5.304688 6.640625 -5.484375 C 6.335938 -5.660156 5.992188 -5.8125 5.609375 -5.9375 C 5.222656 -6.0625 4.828125 -6.1875 4.421875 -6.3125 C 4.023438 -6.4375 3.628906 -6.582031 3.234375 -6.75 C 2.847656 -6.925781 2.503906 -7.148438 2.203125 -7.421875 C 1.898438 -7.691406 1.65625 -8.023438 1.46875 -8.421875 C 1.289062 -8.828125 1.203125 -9.332031 1.203125 -9.9375 C 1.203125 -10.40625 1.289062 -10.863281 1.46875 -11.3125 C 1.65625 -11.757812 1.925781 -12.15625 2.28125 -12.5 C 2.632812 -12.84375 3.070312 -13.117188 3.59375 -13.328125 C 4.113281 -13.535156 4.707031 -13.640625 5.375 -13.640625 C 6.125 -13.640625 6.804688 -13.519531 7.421875 -13.28125 C 8.046875 -13.039062 8.59375 -12.695312 9.0625 -12.25 Z M 8.625 -11.375 "/></g></g></g><g fill="#ff1616" fill-opacity="1"><g transform="translate(29.179624, 122.186308)"><g><path d="M -2.5 -16.953125 C -2.78125 -13.609375 -2.085938 -10.628906 -0.421875 -8.015625 C 1.554688 -4.898438 4.398438 -3.316406 8.109375 -3.265625 C 10.285156 -3.203125 12.34375 -3.785156 14.28125 -5.015625 C 16.21875 -6.253906 17.65625 -7.710938 18.59375 -9.390625 C 20.394531 -12.484375 20.414062 -15.773438 18.65625 -19.265625 C 18.539062 -19.515625 18.410156 -19.753906 18.265625 -19.984375 C 17.484375 -21.222656 16.300781 -22.335938 14.71875 -23.328125 C 13.132812 -24.316406 11.203125 -24.921875 8.921875 -25.140625 L -4.5 -26.5 C -7.425781 -26.789062 -9.660156 -28.144531 -11.203125 -30.5625 C -12.742188 -32.976562 -13.265625 -35.515625 -12.765625 -38.171875 C -12.273438 -40.835938 -10.707031 -43.007812 -8.0625 -44.6875 C -6.726562 -45.53125 -5.179688 -46.285156 -3.421875 -46.953125 L -1.4375 -48.21875 L 2.546875 -42.15625 L 2.0625 -41.84375 C 1.019531 -43.414062 -0.34375 -44.300781 -2.03125 -44.5 C -3.726562 -44.707031 -5.410156 -44.28125 -7.078125 -43.21875 C -8.742188 -42.15625 -9.785156 -40.710938 -10.203125 -38.890625 C -10.628906 -37.066406 -10.285156 -35.285156 -9.171875 -33.546875 C -8.066406 -31.804688 -6.421875 -30.816406 -4.234375 -30.578125 L 9.578125 -29.171875 C 15.046875 -28.597656 19.070312 -26.28125 21.65625 -22.21875 C 23.601562 -19.164062 24.0625 -15.785156 23.03125 -12.078125 C 22.144531 -8.859375 19.960938 -6.140625 16.484375 -3.921875 C 14.367188 -2.578125 12.226562 -1.769531 10.0625 -1.5 C 6.019531 -0.976562 2.566406 -2.273438 -0.296875 -5.390625 C -0.734375 -5.859375 -1.207031 -6.5 -1.71875 -7.3125 C -2.238281 -8.125 -2.710938 -9.382812 -3.140625 -11.09375 C -3.566406 -12.800781 -3.578125 -14.78125 -3.171875 -17.03125 Z M -2.5 -16.953125 "/></g></g></g><g fill="#ff1616" fill-opacity="1"><g transform="translate(66.881424, 98.538369)"><g><path d="M 74.046875 -19.859375 C 73.492188 -18.535156 72.546875 -17.082031 71.203125 -15.5 C 69.859375 -13.914062 68.425781 -12.5625 66.90625 -11.4375 C 65.382812 -10.320312 63.960938 -9.507812 62.640625 -9 C 58.390625 -7.363281 54.039062 -6.644531 49.59375 -6.84375 C 47.96875 -6.914062 45.238281 -7.171875 41.40625 -7.609375 C 32.78125 -8.523438 26.546875 -8.625 22.703125 -7.90625 C 16.722656 -5.9375 11.21875 -6.066406 6.1875 -8.296875 C 1.164062 -10.535156 -2.46875 -14.582031 -4.71875 -20.4375 C -6.976562 -26.300781 -6.859375 -31.828125 -4.359375 -37.015625 C -1.867188 -42.203125 2.503906 -46 8.765625 -48.40625 C 15.035156 -50.8125 20.832031 -50.925781 26.15625 -48.75 C 31.488281 -46.582031 35.304688 -42.515625 37.609375 -36.546875 C 39.617188 -31.304688 39.769531 -26.335938 38.0625 -21.640625 C 36.363281 -16.953125 33.128906 -13.207031 28.359375 -10.40625 C 32.660156 -10.707031 39.457031 -10.691406 48.75 -10.359375 C 53.25 -10.234375 57.515625 -10.945312 61.546875 -12.5 C 63.816406 -13.375 66 -14.535156 68.09375 -15.984375 C 71 -18.054688 73.148438 -20.515625 74.546875 -23.359375 L 74.859375 -23.171875 C 74.867188 -22.296875 74.597656 -21.191406 74.046875 -19.859375 Z M -0.875 -36.984375 C -2.675781 -32.429688 -2.519531 -27.410156 -0.40625 -21.921875 C 1.695312 -16.429688 4.941406 -12.59375 9.328125 -10.40625 C 13.722656 -8.21875 18.445312 -8.09375 23.5 -10.03125 C 28.550781 -11.976562 31.976562 -15.234375 33.78125 -19.796875 C 35.582031 -24.367188 35.425781 -29.398438 33.3125 -34.890625 C 31.207031 -40.378906 27.957031 -44.210938 23.5625 -46.390625 C 19.164062 -48.566406 14.441406 -48.679688 9.390625 -46.734375 C 4.335938 -44.796875 0.914062 -41.546875 -0.875 -36.984375 Z M -0.875 -36.984375 "/></g></g></g><g fill="#ff1616" fill-opacity="1"><g transform="translate(125.99975, 77.501944)"><g><path d="M 37.015625 -46.390625 L 36.078125 -46.25 C 35.265625 -46.132812 34.59375 -45.769531 34.0625 -45.15625 C 33.539062 -44.539062 33.3125 -43.847656 33.375 -43.078125 L 36.71875 -20 C 37.375 -15.457031 36.46875 -11.578125 34 -8.359375 C 31.539062 -5.148438 27.921875 -3.203125 23.140625 -2.515625 C 18.359375 -1.828125 14.273438 -2.65625 10.890625 -5 C 7.515625 -7.34375 5.5 -10.785156 4.84375 -15.328125 L 1.53125 -38.296875 C 1.363281 -39.460938 0.734375 -40.238281 -0.359375 -40.625 C -0.847656 -40.800781 -1.382812 -40.847656 -1.96875 -40.765625 L -2.90625 -40.625 L -2.984375 -41.21875 L 8.84375 -42.921875 L 8.921875 -42.328125 L 8 -42.203125 C 7.144531 -42.078125 6.460938 -41.707031 5.953125 -41.09375 C 5.453125 -40.488281 5.238281 -39.773438 5.3125 -38.953125 L 8.53125 -16.703125 C 9.144531 -12.460938 10.773438 -9.203125 13.421875 -6.921875 C 16.066406 -4.648438 19.296875 -3.789062 23.109375 -4.34375 C 26.921875 -4.894531 29.828125 -6.570312 31.828125 -9.375 C 33.835938 -12.1875 34.554688 -15.59375 33.984375 -19.59375 L 30.65625 -42.609375 C 30.507812 -43.421875 30.101562 -44.046875 29.4375 -44.484375 C 28.78125 -44.929688 28.023438 -45.09375 27.171875 -44.96875 L 26.234375 -44.828125 L 26.15625 -45.421875 L 36.9375 -46.984375 Z M 37.015625 -46.390625 "/></g></g></g><g fill="#ff1616" fill-opacity="1"><g transform="translate(184.401584, 71.258896)"><g><path d="M 4.3125 -0.484375 C 5.332031 -0.453125 6.210938 -0.789062 6.953125 -1.5 C 7.703125 -2.207031 8.109375 -3.070312 8.171875 -4.09375 L 9.015625 -36.75 C 8.992188 -37.769531 8.628906 -38.640625 7.921875 -39.359375 C 7.222656 -40.085938 6.363281 -40.46875 5.34375 -40.5 L 4.578125 -40.515625 L 4.59375 -41.109375 L 17.484375 -40.78125 L 17.46875 -40.1875 L 16.703125 -40.203125 C 15.679688 -40.234375 14.796875 -39.898438 14.046875 -39.203125 C 13.304688 -38.515625 12.90625 -37.660156 12.84375 -36.640625 L 12 -3.984375 C 11.976562 -2.960938 12.328125 -2.082031 13.046875 -1.34375 C 13.773438 -0.601562 14.648438 -0.21875 15.671875 -0.1875 L 16.4375 -0.171875 L 16.421875 0.421875 L 3.53125 0.09375 L 3.546875 -0.5 Z M 4.3125 -0.484375 "/></g></g></g><g fill="#ff1616" fill-opacity="1"><g transform="translate(217.391323, 72.731623)"><g><path d="M 3.9375 -1.796875 C 3.914062 -2.347656 4.03125 -3.398438 4.28125 -4.953125 C 4.539062 -6.503906 5.097656 -8.101562 5.953125 -9.75 L 6.484375 -9.671875 C 6.378906 -9.253906 6.289062 -8.828125 6.21875 -8.390625 C 5.820312 -6.023438 6.210938 -3.941406 7.390625 -2.140625 C 8.566406 -0.335938 10.335938 0.753906 12.703125 1.140625 C 15.140625 1.546875 17.257812 1.140625 19.0625 -0.078125 C 20.875 -1.296875 21.960938 -3.019531 22.328125 -5.25 C 22.703125 -7.476562 22.253906 -9.410156 20.984375 -11.046875 L 11.53125 -23.21875 C 9.757812 -25.5 9.097656 -28.015625 9.546875 -30.765625 C 10.003906 -33.515625 11.3125 -35.710938 13.46875 -37.359375 C 15.625 -39.015625 18.269531 -39.582031 21.40625 -39.0625 C 22.875 -38.820312 24.507812 -38.363281 26.3125 -37.6875 L 28.578125 -37.3125 L 27.40625 -30.15625 L 26.890625 -30.234375 C 27.191406 -32.046875 26.800781 -33.597656 25.71875 -34.890625 C 24.632812 -36.191406 23.101562 -37.003906 21.125 -37.328125 C 19.15625 -37.648438 17.390625 -37.265625 15.828125 -36.171875 C 14.273438 -35.078125 13.335938 -33.539062 13.015625 -31.5625 C 12.691406 -29.59375 13.179688 -27.757812 14.484375 -26.0625 L 24.21875 -13.609375 C 25.851562 -11.515625 26.410156 -8.914062 25.890625 -5.8125 C 25.378906 -2.71875 23.972656 -0.335938 21.671875 1.328125 C 19.367188 3.003906 16.566406 3.566406 13.265625 3.015625 C 11.578125 2.742188 9.816406 2.1875 7.984375 1.34375 C 6.160156 0.507812 4.8125 -0.535156 3.9375 -1.796875 Z M 3.9375 -1.796875 "/></g></g></g><g fill="#ff1616" fill-opacity="1"><g transform="translate(257.220926, 79.527665)"><g><path d="M 30.453125 10.46875 C 31.410156 10.820312 32.351562 10.78125 33.28125 10.34375 C 34.21875 9.914062 34.875 9.25 35.25 8.34375 L 40.46875 -5.984375 L 17.84375 -14.234375 L 12.625 0.09375 C 12.269531 1.050781 12.320312 1.988281 12.78125 2.90625 C 13.238281 3.820312 13.945312 4.453125 14.90625 4.796875 L 15.625 5.0625 L 15.421875 5.625 L 3.3125 1.203125 L 3.515625 0.640625 L 4.234375 0.90625 C 5.191406 1.257812 6.128906 1.226562 7.046875 0.8125 C 7.972656 0.394531 8.632812 -0.28125 9.03125 -1.21875 L 20.234375 -31.96875 C 20.546875 -32.945312 20.484375 -33.890625 20.046875 -34.796875 C 19.609375 -35.710938 18.910156 -36.347656 17.953125 -36.703125 L 17.234375 -36.96875 L 17.4375 -37.515625 L 29.546875 -33.09375 L 29.34375 -32.546875 L 28.625 -32.8125 C 27.664062 -33.15625 26.722656 -33.117188 25.796875 -32.703125 C 24.878906 -32.285156 24.222656 -31.601562 23.828125 -30.65625 L 18.453125 -15.890625 L 41.078125 -7.640625 L 46.453125 -22.40625 C 46.898438 -23.757812 46.675781 -24.972656 45.78125 -26.046875 C 45.332031 -26.546875 44.796875 -26.910156 44.171875 -27.140625 L 43.453125 -27.40625 L 43.65625 -27.953125 L 55.765625 -23.53125 L 55.5625 -22.984375 L 54.84375 -23.25 C 53.882812 -23.601562 52.941406 -23.5625 52.015625 -23.125 C 51.085938 -22.6875 50.425781 -22 50.03125 -21.0625 L 38.84375 9.640625 C 38.53125 10.617188 38.59375 11.5625 39.03125 12.46875 C 39.46875 13.375 40.164062 14.003906 41.125 14.359375 L 41.84375 14.625 L 41.640625 15.1875 L 29.53125 10.765625 L 29.734375 10.203125 Z M 30.453125 10.46875 "/></g></g></g><g fill="#ff1616" fill-opacity="1"><g transform="translate(312.836402, 101.606774)"><g><path d="M 55.078125 -13.65625 L 54.375 -14.09375 C 53.375 -14.707031 52.265625 -15.007812 51.046875 -15 C 49.828125 -15 48.65625 -14.769531 47.53125 -14.3125 L 27.75 -4.40625 L 20.328125 7.546875 C 19.785156 8.421875 19.632812 9.351562 19.875 10.34375 C 20.113281 11.34375 20.6875 12.125 21.59375 12.6875 L 22.1875 13.0625 L 21.875 13.5625 L 10.953125 6.796875 L 11.265625 6.296875 L 11.921875 6.6875 C 12.785156 7.226562 13.710938 7.390625 14.703125 7.171875 C 15.691406 6.960938 16.476562 6.4375 17.0625 5.59375 L 24.53125 -6.46875 L 24.875 -28.359375 C 24.851562 -29.472656 24.5625 -30.597656 24 -31.734375 C 23.4375 -32.867188 22.65625 -33.75 21.65625 -34.375 L 20.953125 -34.8125 L 21.265625 -35.3125 L 33.578125 -27.671875 L 33.265625 -27.171875 L 32.609375 -27.578125 C 31.878906 -28.035156 31.109375 -28.054688 30.296875 -27.640625 C 29.867188 -27.378906 29.546875 -27.070312 29.328125 -26.71875 C 29.117188 -26.375 28.988281 -25.988281 28.9375 -25.5625 L 27.765625 -6.890625 L 44.484375 -15.984375 C 44.859375 -16.222656 45.144531 -16.503906 45.34375 -16.828125 C 45.550781 -17.160156 45.65625 -17.585938 45.65625 -18.109375 C 45.675781 -19.023438 45.316406 -19.710938 44.578125 -20.171875 L 43.984375 -20.53125 L 44.296875 -21.03125 L 55.390625 -14.15625 Z M 55.078125 -13.65625 "/></g></g></g></svg>